<svg width="61" height="61" viewBox="0 0 61 61" fill="none" xmlns="http://www.w3.org/2000/svg">
<g clip-path="url(#clip0_60_70)">
<path d="M11.0318 17.0607L15.3034 19.2343C16.0897 19.5838 16.9454 19.7413 17.802 19.6941C18.6587 19.6469 19.4927 19.3964 20.2372 18.9626L24.2741 16.2891C24.9687 15.776 25.5341 15.1027 25.9238 14.3246C26.3137 13.5463 26.5168 12.6851 26.5166 11.8116L26.2604 6.91018C26.1669 6.04369 25.8747 5.21154 25.4073 4.481C24.9398 3.75047 24.3103 3.14188 23.5692 2.70434L19.2975 0.476442C18.5128 0.122803 17.6571 -0.037822 16.8 0.00749673C15.9429 0.0528155 15.1082 0.302774 14.3637 0.737268L10.327 3.41074C9.63357 3.92512 9.06907 4.5986 8.67949 5.37662C8.2898 6.15455 8.08583 7.01516 8.08423 7.88828L8.34053 12.7897C8.42351 13.668 8.71088 14.5136 9.17885 15.2562C9.64682 15.9991 10.282 16.6176 11.0318 17.0607Z" fill="#F8FBFC"/>
<path d="M36.8007 23.4076L32.529 21.1798C31.7446 20.8303 30.8906 20.6729 30.0357 20.7201C29.1807 20.7673 28.3486 21.0178 27.6058 21.4514L23.5263 24.1248C22.8355 24.6417 22.2729 25.3157 21.8835 26.0931C21.4941 26.8705 21.2886 27.7298 21.2837 28.6025L21.5401 33.5037C21.6336 34.3704 21.9257 35.2025 22.3931 35.9331C22.8608 36.6636 23.4903 37.2722 24.2312 37.7096L28.5029 39.8832C29.2859 40.2367 30.1397 40.3974 30.9952 40.3522C31.8506 40.3068 32.6834 40.0567 33.4261 39.6224L37.4735 36.9489C38.1647 36.4299 38.7272 35.7539 39.1165 34.9746C39.5058 34.1955 39.7113 33.3346 39.7162 32.4604L39.4598 27.57C39.3619 26.7146 39.0709 25.8937 38.6097 25.1717C38.1483 24.4496 37.5292 23.8459 36.8007 23.4076Z" fill="#F8FBFC"/>
<path d="M49.9791 44.0783L45.7074 41.9047C44.9225 41.551 44.067 41.3904 43.2098 41.4356C42.3528 41.481 41.5181 41.7309 40.7735 42.1655L36.7369 44.839C36.0446 45.3545 35.481 46.0283 35.0916 46.806C34.702 47.5837 34.4974 48.4437 34.4941 49.3165L34.7506 54.2179C34.8527 55.0705 35.1468 55.8877 35.6099 56.6057C36.0728 57.3238 36.6924 57.9236 37.4203 58.3586L41.692 60.5321C42.4783 60.8816 43.3339 61.039 44.1905 60.9918C45.0472 60.9447 45.8812 60.6941 46.6258 60.2605L50.6732 57.587C51.3647 57.0714 51.9271 56.3974 52.3149 55.6195C52.7025 54.8416 52.9048 53.9817 52.9052 53.1094L52.6809 48.2949C52.5887 47.4252 52.296 46.5899 51.8264 45.8571C51.357 45.1244 50.724 44.5148 49.9791 44.0783Z" fill="#F8FBFC"/>
<path d="M18.5072 31.9061L18.3042 28.0915C18.3091 27.219 18.5146 26.3597 18.904 25.5823C19.2934 24.8048 19.8559 24.1307 20.5469 23.614L28.4175 18.4084C29.1602 17.9747 29.9924 17.7242 30.8474 17.677C31.7023 17.6299 32.5562 17.7873 33.3406 18.1366L36.694 19.8755C37.4788 20.229 38.3344 20.3899 39.1914 20.3445C40.0487 20.2992 40.8833 20.0491 41.6278 19.6146L45.6646 16.9303C46.3574 16.4153 46.9213 15.7418 47.3108 14.9639C47.7005 14.186 47.9047 13.3258 47.9072 12.4528L47.6509 7.56225C47.5591 6.6938 47.2675 5.85948 46.8 5.12699C46.3324 4.3944 45.7021 3.78416 44.9597 3.34554L40.688 1.11764C39.9018 0.768238 39.0462 0.610764 38.1894 0.65793C37.3327 0.705097 36.4988 0.955599 35.7542 1.38933L31.632 4.01934C30.9405 4.53491 30.3781 5.20893 29.9904 5.98685C29.6026 6.76477 29.4004 7.62462 29.4 8.49688L29.5923 12.3115C29.592 13.1839 29.3896 14.0436 29.0018 14.8216C28.614 15.5995 28.0517 16.2736 27.3602 16.789L19.4897 21.9947C18.7451 22.4291 17.9106 22.6792 17.0534 22.7246C16.1962 22.7699 15.3406 22.6092 14.5558 22.2555L11.2132 20.5275C10.4284 20.1739 9.5729 20.0132 8.71568 20.0586C7.85855 20.1039 7.02396 20.3538 6.2794 20.7884L2.24264 23.4618C1.54924 23.9762 0.984843 24.6497 0.595156 25.4277C0.20547 26.2057 0.00160189 27.0663 0 27.9393L0.2563 32.8407C0.347287 33.7095 0.638511 34.5442 1.10605 35.2769C1.57369 36.0096 2.20452 36.6196 2.94748 37.0575L7.21919 39.231C8.00539 39.5806 8.86101 39.738 9.7177 39.6908C10.5744 39.6437 11.4084 39.3931 12.1531 38.9593L16.1897 36.2858C16.8835 35.7888 17.4538 35.1344 17.8561 34.3742C18.2584 33.6141 18.4813 32.7691 18.5072 31.9061Z" fill="#F8FBFC"/>
<path d="M60.7864 28.233C60.6913 27.3655 60.3984 26.5326 59.9312 25.8004C59.464 25.0684 58.8353 24.4574 58.0952 24.0164L53.8236 21.8428C53.0371 21.4941 52.1815 21.337 51.325 21.3843C50.4685 21.4314 49.6345 21.6815 48.8898 22.1145L44.8529 24.788C44.1608 25.3035 43.5973 25.9772 43.2078 26.7549C42.8182 27.5326 42.6136 28.3925 42.6104 29.2655L42.8132 33.0909C42.81 33.9637 42.6053 34.8237 42.2158 35.6014C41.8262 36.3791 41.2627 37.0528 40.5705 37.5685L32.7105 42.7632C31.966 43.197 31.132 43.4475 30.2753 43.4947C29.4187 43.5418 28.5631 43.3843 27.7767 43.0349L24.4235 41.2961C23.6391 40.9468 22.7852 40.7893 21.9301 40.8364C21.0751 40.8836 20.243 41.1341 19.5003 41.5678L15.4208 44.2304C14.7299 44.7472 14.1674 45.421 13.7779 46.1985C13.3886 46.976 13.1832 47.8353 13.1782 48.7079L13.4344 53.6092C13.528 54.4758 13.8202 55.3079 14.2877 56.0385C14.7552 56.769 15.3847 57.3776 16.1257 57.8151L20.3975 60.0431C21.1803 60.3966 22.0341 60.5573 22.8895 60.5119C23.7451 60.4665 24.5778 60.2165 25.3206 59.7821L29.368 57.1087C30.0582 56.5914 30.6205 55.9173 31.0097 55.1399C31.3991 54.3625 31.6048 53.5035 31.6107 52.6312L31.4077 48.8057C31.4101 47.9327 31.6144 47.0725 32.004 46.2947C32.3935 45.5168 32.9576 44.8431 33.6504 44.3281L41.5102 39.1225C42.2549 38.6881 43.0895 38.438 43.9466 38.3926C44.8038 38.3474 45.6593 38.508 46.4441 38.8617L49.7867 40.5897C50.5715 40.9433 51.4272 41.104 52.2842 41.0587C53.1414 41.0133 53.976 40.7634 54.7205 40.3289L58.7681 37.6554C59.4588 37.1391 60.0208 36.465 60.4085 35.6873C60.7961 34.9095 60.9987 34.0499 60.9999 33.1779L60.7864 28.233Z" fill="#F8FBFC"/>
</g>
<defs>
<clipPath id="clip0_60_70">
<rect width="61" height="61" fill="white"/>
</clipPath>
</defs>
</svg>
